HIERARCHY
ROOT Hips
{
	OFFSET 0.000000 0.000000 0.000000 
	CHANNELS 6 Xposition Yposition Zposition Yrotation Zrotation Xrotation 
	JOINT Lumbar
	{
		OFFSET 0.000000 0.000000 0.000000 
		CHANNELS 3 Zrotation Xrotation Yrotation
		JOINT Neck
		{
			OFFSET 0.000000 0.445665 0.000000 
			CHANNELS 3 Zrotation Xrotation Yrotation
			End Site
			{
				OFFSET 0.000000 0.227535 0.000000 
			}
		}
		JOINT RightShoulder
		{
			OFFSET 0.019635 0.377685 0.194865 
			CHANNELS 3 Zrotation Xrotation Yrotation
			JOINT RightElbow
			{
				OFFSET 0.000000 -0.243375 0.000000 
				CHANNELS 2 Zrotation Yrotation
				JOINT RightWrist
				{
					OFFSET 0.000000 -0.264825 0.000000 
					CHANNELS 2 Zrotation Xrotation
					End Site
					{
						OFFSET 0.006600 -0.176220 0.000990 
					}
				}
			}
		}
		JOINT LeftShoulder
		{
			OFFSET 0.019635 0.377685 -0.194865 
			CHANNELS 3 Zrotation Xrotation Yrotation
			JOINT LeftElbow
			{
				OFFSET 0.000000 -0.243375 0.000000 
				CHANNELS 2 Zrotation Yrotation
				JOINT LeftWrist
				{
					OFFSET 0.000000 -0.264825 0.000000 
					CHANNELS 2 Zrotation Xrotation
					End Site
					{
						OFFSET 0.006600 -0.176220 -0.000990 
					}
				}
			}
		}
	}
	JOINT RightHip
	{
		OFFSET 0.052140 -0.069960 0.075570 
		CHANNELS 3 Zrotation Xrotation Yrotation
		JOINT RightKnee
		{
			OFFSET 0.000000 -0.402270 0.000000 
			CHANNELS 1 Zrotation
			JOINT RightAnkle
			{
				OFFSET 0.000000 -0.404085 0.000000 
				CHANNELS 3 Zrotation Xrotation Yrotation
				End Site
				{
					OFFSET 0.204105 -0.089430 0.008415 
				}
			}
		}
	}
	JOINT LeftHip
	{
		OFFSET 0.052140 -0.069960 -0.075570 
		CHANNELS 3 Zrotation Xrotation Yrotation
		JOINT LeftKnee
		{
			OFFSET 0.000000 -0.402270 0.000000 
			CHANNELS 1 Zrotation
			JOINT LeftAnkle
			{
				OFFSET 0.000000 -0.404085 0.000000 
				CHANNELS 3 Zrotation Xrotation Yrotation
				End Site
				{
					OFFSET 0.204105 -0.089430 -0.008415 
				}
			}
		}
	}
}
MOTION
Frames: 22
Frame Time: 0.02
0.68961 -0.40778 -0.05174 -175.81387 10.67625 -2.10962 23.6715 2.91697 -4.97136 -12.24174 -5.15676 -2.1192 34.11023 4.37875 55.37605 102.06719 94.42878 79.64205 -2.67457 26.36094 0.84634 -55.56619 99.02862 -102.28971 79.42551 1.72685 72.11023 -8.12059 -9.46415 -73.42345 -13.60375 -3.19356 -4.14921 72.70209 11.89582 5.06567 -71.30027 -14.93736 2.85074 4.04372
0.68995 -0.40782 -0.05152 -175.90022 10.96574 -1.99124 23.421 2.89669 -5.4073 -12.08624 -5.31908 -2.11921 30.91665 6.48787 55.43878 98.71906 88.26295 79.87327 -3.1938 26.18149 1.47773 -55.5781 102.16906 -90.45073 80.02102 5.26938 71.85458 -7.94276 -9.15254 -73.36295 -13.71062 -3.19285 -4.15439 72.39841 11.89591 5.11646 -71.24518 -14.93164 2.86113 4.04887
0.6903 -0.40784 -0.05129 -176.00651 11.30955 -1.83939 23.09389 2.87476 -5.95525 -11.88919 -5.51186 -2.11921 26.76607 9.06597 55.48169 94.58278 80.52232 80.01778 -3.82384 25.94099 2.26309 -55.59306 106.11019 -75.64864 80.7783 9.69746 71.54935 -7.7235 -8.76264 -73.29002 -13.84307 -3.1919 -4.1607 72.03053 11.90109 5.18571 -71.17484 -14.92849 2.87346 4.05514
0.69065 -0.40789 -0.05107 -176.09776 11.61452 -1.71227 22.81626 2.85503 -6.42156 -11.71033 -5.6822 -2.11922 23.27821 11.28285 55.52798 91.04053 73.91575 80.1774 -4.36558 25.73432 2.9352 -55.60587 109.46691 -63.02613 81.42317 13.47864 71.28126 -7.53809 -8.43186 -73.22716 -13.95898 -3.19019 -4.1658 71.70847 11.89819 5.23393 -71.11397 -14.92586 2.88438 4.0607
0.691 -0.40789 -0.05082 -176.21361 11.97829 -1.54575 22.47767 2.82924 -7.01507 -11.53434 -5.88716 -2.11922 18.85527 14.1161 55.59878 86.51837 65.57122 80.44131 -5.0645 25.5006 3.7866 -55.62187 113.73803 -46.95022 82.23073 18.27312 70.95294 -7.29028 -8.00258 -73.14615 -14.09559 -3.19204 -4.1738 71.31746 11.91788 5.33326 -71.04267 -14.91638 2.89757 4.06711
0.69135 -0.40797 -0.05063 -176.28366 12.23406 -1.45234 22.24609 2.81572 -7.3737 -11.3421 -6.02947 -2.11923 16.12748 15.79287 55.61467 83.82497 60.43154 80.47165 -5.46661 25.30887 4.30584 -55.63201 116.318 -37.27674 82.74084 21.19295 70.73637 -7.161 -7.75776 -73.09947 -14.19544 -3.18654 -4.17611 71.05286 11.89358 5.33331 -70.98924 -14.92143 2.9065 4.07201
0.6917 -0.4083 -0.0506 -176.21654 12.16305 -1.57794 22.34643 2.83574 -7.02546 -11.12042 -5.9724 -2.11923 18.5013 14.00402 55.46934 86.61217 64.90515 79.8167 -4.98321 25.25272 3.82771 -55.62472 113.82114 -46.79009 82.35946 18.48907 70.85802 -7.3843 -8.06353 -73.15474 -14.18409 -3.15976 -4.16176 71.17161 11.7316 5.03037 -70.99033 -14.96914 2.90286 4.07244
0.69206 -0.40871 -0.05062 -176.10374 11.98407 -1.77665 22.55405 2.86836 -6.44258 -10.88287 -5.8552 -2.11923 22.57817 11.06286 55.27165 91.22468 72.59059 78.93951 -4.20417 25.24036 3.01774 -55.61154 109.63281 -62.7077 81.67842 13.90948 71.09084 -7.72558 -8.55377 -73.2442 -14.13547 -3.12578 -4.14179 71.41661 11.52777 4.63104 -71.00962 -15.03085 2.89492 4.0713
0.69241 -0.40908 -0.05062 -176.01564 11.86469 -1.93599 22.70088 2.89555 -5.9875 -10.64928 -5.7773 -2.11924 25.75134 8.75275 55.10732 94.84475 78.556 78.20418 -3.58619 25.20506 2.38757 -55.60142 106.35803 -75.17678 81.15472 10.34107 71.26103 -8.00295 -8.94513 -73.31532 -14.10609 -3.09578 -4.12485 71.5914 11.3533 4.29233 -71.01961 -15.08402 2.88915 4.07088
0.69278 -0.40949 -0.05062 -175.91156 11.70352 -2.11996 22.89524 2.92108 -5.44752 -10.42819 -5.64799 -2.11924 29.43807 6.00923 54.90269 99.11985 85.5579 77.296 -2.86047 25.18023 1.64072 -55.58979 102.50336 -89.79927 80.54839 6.13851 71.47967 -8.32219 -9.39692 -73.39792 -14.06784 -3.06282 -4.10592 71.81721 11.13636 3.88492 -71.03348 -15.14624 2.88252 4.07048
0.69311 -0.40983 -0.05063 -175.82969 11.60206 -2.2706 23.0178 2.95355 -5.0265 -10.17756 -5.61351 -2.11924 32.47319 3.88433 54.76888 102.48085 91.19402 76.69295 -2.28611 25.14503 1.05568 -55.57985 99.43978 -101.5145 80.03963 2.79338 71.6256 -8.58294 -9.76808 -73.46481 -14.03891 -3.03427 -4.08979 71.96873 10.99657 3.59539 -71.04372 -15.19318 2.87666 4.06967
0.69336 -0.40999 -0.05064 -175.82006 11.7005 -2.30994 22.90996 2.99794 -4.99676 -9.85182 -5.83486 -2.11925 33.28616 3.78474 54.8515 102.81914 92.19576 77.01497 -2.21359 25.06844 1.00165 -55.57604 99.01084 -103.48896 79.88368 2.32598 71.53364 -8.65218 -9.86843 -73.48047 -14.04439 -3.02 -4.08293 71.87442 11.09169 3.67301 -71.04001 -15.1923 2.87378 4.06787
0.69357 -0.41009 -0.05066 -175.83432 11.86103 -2.31366 22.72754 3.04966 -5.09327 -9.49666 -6.15745 -2.11925 33.39056 4.33865 55.00581 102.18798 91.73413 77.647 -2.301 24.98026 1.12066 -55.57407 99.42584 -102.35796 79.8336 2.77231 71.36661 -8.65889 -9.88223 -73.47911 -14.06044 -3.01037 -4.07905 71.703 11.26382 3.86924 -71.03201 -15.17594 2.87185 4.06574
0.69379 -0.41022 -0.05068 -175.83775 11.98708 -2.33475 22.58367 3.10072 -5.12788 -9.15349 -6.44714 -2.11925 33.82814 4.5678 55.12203 102.03898 92.00156 78.11896 -2.30689 24.89947 1.15763 -55.57125 99.42624 -102.76041 79.72762 2.76218 71.24093 -8.69518 -9.93802 -73.48523 -14.07184 -2.9984 -4.07368 71.57383 11.3929 3.99908 -71.02563 -15.16816 2.8696 4.06391
0.69402 -0.41034 -0.0507 -175.8395 12.1353 -2.35329 22.42429 3.14088 -5.17344 -8.81549 -6.67941 -2.11926 34.27723 4.87391 55.25953 101.77839 92.11134 78.66372 -2.33934 24.81258 1.1972 -55.56844 99.49822 -102.872 79.64408 2.86077 71.08926 -8.7307 -9.98896 -73.49357 -14.08145 -2.98711 -4.06867 71.41919 11.55404 4.17778 -71.02112 -15.15451 2.86673 4.06139
0.69424 -0.41047 -0.05071 -175.851 12.25418 -2.36783 22.27754 3.20539 -5.22927 -8.46001 -7.0561 -2.11926 34.5122 5.19037 55.37061 101.4953 92.15833 79.13384 -2.35895 24.73338 1.27712 -55.56592 99.64484 -102.76471 79.54293 2.97472 70.97156 -8.75137 -10.02711 -73.49287 -14.09763 -2.97563 -4.0637 71.29689 11.66786 4.28475 -71.01167 -15.14904 2.86542 4.06025
0.69447 -0.41065 -0.05069 -175.88407 12.27114 -2.37891 22.1887 3.33457 -5.2831 -8.06361 -7.80668 -2.11927 34.31966 5.37608 55.38985 101.38819 92.39391 79.31928 -2.29937 24.69346 1.4241 -55.56583 99.78615 -102.82185 79.36794 2.91193 70.97342 -8.74674 -10.04988 -73.47056 -14.13062 -2.96226 -4.05805 71.28899 11.62714 4.16021 -70.98762 -15.17138 2.86835 4.06318
0.69471 -0.41085 -0.05065 -175.92631 12.25788 -2.38696 22.1139 3.48802 -5.34395 -7.65096 -8.69913 -2.11927 33.9289 5.55523 55.38054 101.28262 92.60027 79.42059 -2.22345 24.65923 1.60759 -55.56572 99.98253 -102.73284 79.17319 2.84209 71.01027 -8.72881 -10.06223 -73.43974 -14.16978 -2.9486 -4.05237 71.31464 11.53741 3.96092 -70.95898 -15.20214 2.87282 4.06748
0.69494 -0.41104 -0.05062 -175.96422 12.26293 -2.39684 22.0288 3.63091 -5.40246 -7.24543 -9.52738 -2.11928 33.62734 5.74285 55.38547 101.16661 92.80114 79.56329 -2.1598 24.61144 1.77758 -55.56414 100.16571 -102.67212 78.98822 2.78135 71.02553 -8.71597 -10.07904 -73.41317 -14.20553 -2.93523 -4.04678 71.32004 11.47351 3.79897 -70.93368 -15.22806 2.87654 4.07107
0.69519 -0.41122 -0.05059 -176.00345 12.2514 -2.40388 21.95701 3.77236 -5.46177 -6.83895 -10.35915 -2.11929 33.30792 5.92963 55.38757 101.05904 93.03142 79.70313 -2.08204 24.60711 1.94105 -55.56842 100.32842 -102.66585 78.80237 2.72439 71.06165 -8.70451 -10.09348 -73.38439 -14.2443 -2.92136 -4.04098 71.34341 11.39681 3.62595 -70.90308 -15.25777 2.88055 4.07507
0.6954 -0.41143 -0.05055 -176.04202 12.26564 -2.41622 21.86266 3.92212 -5.51931 -6.43229 -11.21448 -2.1193 32.98507 6.10793 55.38783 100.94666 93.21318 79.82519 -2.02657 24.5169 2.12365 -55.56102 100.53469 -102.55391 78.61361 2.64873 71.06434 -8.68848 -10.11225 -73.35843 -14.27797 -2.90839 -4.03555 71.33901 11.33469 3.45786 -70.88236 -15.28176 2.88426 4.07852
0.69548 -0.4117 -0.05049 -176.07452 12.36518 -2.4471 21.69531 4.09187 -5.57136 -6.01811 -12.11232 -2.1193 32.72484 6.26573 55.38984 100.82257 93.26101 79.91496 -2.04687 24.16059 2.35795 -55.51663 100.85834 -102.16627 78.41016 2.49976 70.9601 -8.65711 -10.1385 -73.34234 -14.29719 -2.89814 -4.0313 71.24364 11.31962 3.31142 -70.89111 -15.28822 2.88717 4.08033
